<svg xmlns="http://www.w3.org/2000/svg" width="1200" height="740" viewBox="0 0 1200 740" role="img" aria-labelledby="title desc">
  <title id="title">Regulated-offline tenant deployment profile</title>
  <desc id="desc">Air-gapped regulated tenant: coding agents in hardened agent-sandbox pods in a confidential, restricted tenant namespace may reach only in-cluster DNS, the inference gateway, and the RAG service; a default-deny no-egress NetworkPolicy boundary blocks all external traffic. The gateway routes to the in-cluster runtime and RAG, with GitOps, observability, and evidence retained in-cluster and images pulled from a private registry.</desc>
  <defs>
    <marker id="arrow" markerWidth="12" markerHeight="12" refX="10" refY="6" orient="auto" markerUnits="strokeWidth">
      <path d="M2,2 L10,6 L2,10 Z" fill="#334155"/>
    </marker>
    <marker id="blocked" markerWidth="14" markerHeight="14" refX="7" refY="7" orient="auto" markerUnits="strokeWidth">
      <circle cx="7" cy="7" r="6" fill="#fff" stroke="#e07480" stroke-width="2"/>
      <path d="M3,3 L11,11 M11,3 L3,11" stroke="#e07480" stroke-width="2"/>
    </marker>
    <style>
      .bg { fill: #f8fafc; }
      .panel { fill: #ffffff; stroke: #cbd5e1; stroke-width: 2; }
      .soft { fill: #eef6ff; stroke: #7aa7d9; }
      .green { fill: #eefaf2; stroke: #62a878; }
      .gold { fill: #fff7e6; stroke: #d99f2b; }
      .rose { fill: #fff1f2; stroke: #e07480; }
      .ink { fill: #0f172a; font-family: "Segoe UI", Arial, sans-serif; }
      .muted { fill: #475569; font-family: "Segoe UI", Arial, sans-serif; }
      .tiny { font-size: 15px; }
      .small { font-size: 18px; }
      .medium { font-size: 21px; font-weight: 700; }
      .large { font-size: 28px; font-weight: 800; }
      .line { stroke: #334155; stroke-width: 2.5; fill: none; marker-end: url(#arrow); }
      .line-soft { stroke: #64748b; stroke-width: 2; fill: none; marker-end: url(#arrow); stroke-dasharray: 7 7; }
      .denied { stroke: #e07480; stroke-width: 2.5; fill: none; marker-end: url(#blocked); stroke-dasharray: 5 5; }
      .label { font-size: 14px; fill: #334155; font-family: "Segoe UI", Arial, sans-serif; font-weight: 700; }
    </style>
  </defs>

  <rect class="bg" width="1200" height="740"/>

  <text x="40" y="48" class="ink large">Profile 3: Regulated-offline tenant (no egress)</text>
  <text x="40" y="78" class="muted small">Confidential coding-agent tenant; externalEgressAllowed=false, allowedEgressCidrs=[]; images from private registry.</text>

  <!-- External world (outside boundary) -->
  <rect x="40" y="320" width="170" height="160" rx="14" class="panel rose"/>
  <text x="60" y="356" class="ink small">External</text>
  <text x="60" y="378" class="muted tiny">Internet, public</text>
  <text x="60" y="398" class="muted tiny">model APIs,</text>
  <text x="60" y="418" class="muted tiny">mirrors</text>
  <text x="60" y="452" class="muted tiny" fill="#b91c1c">all egress denied</text>

  <!-- No-egress boundary -->
  <rect x="260" y="110" width="900" height="600" rx="18" fill="#fff7f7" stroke="#e07480" stroke-width="3"/>
  <text x="282" y="140" class="ink small" fill="#b91c1c">No-egress boundary: default-deny NetworkPolicy (DNS + gateway + RAG only)</text>

  <!-- Tenant namespace -->
  <rect x="290" y="170" width="260" height="350" rx="14" class="panel soft"/>
  <text x="312" y="206" class="ink medium">Tenant namespace</text>
  <text x="312" y="230" class="muted tiny">confidential; PSA restricted</text>
  <rect x="310" y="248" width="220" height="96" rx="10" fill="#ffffff" stroke="#7aa7d9" stroke-width="1.5"/>
  <text x="330" y="280" class="ink small">Coding agents</text>
  <text x="330" y="304" class="muted tiny">hardened sandbox + PVC</text>
  <text x="330" y="326" class="muted tiny">viewer-only RBAC</text>
  <rect x="310" y="360" width="220" height="70" rx="10" fill="#ffffff" stroke="#7aa7d9" stroke-width="1.5"/>
  <text x="330" y="390" class="ink small">Allowed egress</text>
  <text x="330" y="412" class="muted tiny">DNS, gateway, RAG</text>
  <rect x="310" y="446" width="220" height="58" rx="10" fill="#ffffff" stroke="#7aa7d9" stroke-width="1.5"/>
  <text x="330" y="476" class="ink small">Evidence 730d</text>
  <text x="330" y="496" class="muted tiny">two-year retention</text>

  <!-- Gateway -->
  <rect x="600" y="180" width="250" height="200" rx="14" class="panel green"/>
  <text x="622" y="216" class="ink medium">Inference Gateway</text>
  <text x="622" y="240" class="muted tiny">ns inference, :8080</text>
  <rect x="620" y="256" width="210" height="32" rx="16" fill="#e2e8f0"/>
  <text x="638" y="278" class="label">Auth + admission</text>
  <rect x="620" y="298" width="210" height="32" rx="16" fill="#e2e8f0"/>
  <text x="638" y="320" class="label">Budgets + guardrails</text>
  <rect x="620" y="340" width="210" height="32" rx="16" fill="#e2e8f0"/>
  <text x="638" y="362" class="label">Audit chain + /metrics</text>

  <!-- Budget Redis -->
  <rect x="600" y="410" width="250" height="70" rx="14" class="panel"/>
  <text x="622" y="442" class="ink small">Budget Redis</text>
  <text x="622" y="464" class="muted tiny">ns budget :6379</text>

  <!-- In-cluster runtime -->
  <rect x="900" y="180" width="230" height="110" rx="14" class="panel"/>
  <text x="922" y="216" class="ink medium">Runtime</text>
  <text x="922" y="242" class="muted tiny">ns vllm / ollama</text>
  <text x="922" y="266" class="muted tiny">in-cluster weights only</text>

  <!-- RAG + Qdrant -->
  <rect x="900" y="320" width="230" height="110" rx="14" class="panel soft"/>
  <text x="922" y="356" class="ink small">RAG Service</text>
  <text x="922" y="380" class="muted tiny">ns rag</text>
  <text x="922" y="404" class="muted tiny">qdrant / lexical, ns vector</text>

  <!-- Private registry -->
  <rect x="600" y="540" width="250" height="84" rx="14" class="panel gold"/>
  <text x="622" y="574" class="ink small">Private registry</text>
  <text x="622" y="598" class="muted tiny">requirePrivateRegistry=true</text>

  <!-- GitOps + Observability -->
  <rect x="900" y="470" width="230" height="84" rx="14" class="panel gold"/>
  <text x="922" y="504" class="ink small">GitOps + Policy</text>
  <text x="922" y="528" class="muted tiny">Argo CD, Kyverno</text>
  <rect x="900" y="570" width="230" height="84" rx="14" class="panel rose"/>
  <text x="922" y="604" class="ink small">Observability</text>
  <text x="922" y="628" class="muted tiny">in-cluster, evidence</text>

  <!-- flows allowed -->
  <path d="M550 300 C575 290 580 290 600 290" class="line"/>
  <path d="M850 250 C875 240 880 235 900 235" class="line"/>
  <path d="M850 350 C875 360 880 365 900 365" class="line"/>
  <path d="M725 380 C725 395 725 400 725 410" class="line"/>
  <path d="M725 480 C725 510 725 520 725 540" class="line-soft"/>
  <path d="M850 360 C1000 430 1010 450 1015 470" class="line-soft"/>

  <text x="556" y="284" class="muted tiny">in-cluster only</text>
  <text x="858" y="232" class="muted tiny">route</text>
  <text x="858" y="382" class="muted tiny">context</text>
  <text x="734" y="405" class="muted tiny">budget</text>

  <!-- denied egress -->
  <path d="M290 400 C255 400 245 400 213 400" class="denied"/>
  <text x="222" y="392" class="muted tiny" fill="#b91c1c">blocked</text>

  <text x="40" y="724" class="muted tiny">Render with make tenant-onboard-regulated. Verified by an external curl timing out while in-cluster /healthz succeeds.</text>
</svg>
