<svg xmlns="http://www.w3.org/2000/svg" width="1180" height="720" viewBox="0 0 1180 720" role="img" aria-labelledby="title desc">
  <title id="title">Local kind/Ollama deployment profile</title>
  <desc id="desc">Local kind cluster: API clients and coding agents call the inference gateway via port-forward; the gateway authenticates with an inline API-key digest, enforces budgets via Redis, routes to the Ollama runtime, and calls the RAG service for lexical context, with Argo CD GitOps and an in-cluster observability stack.</desc>
  <defs>
    <marker id="arrow" markerWidth="12" markerHeight="12" refX="10" refY="6" orient="auto" markerUnits="strokeWidth">
      <path d="M2,2 L10,6 L2,10 Z" fill="#334155"/>
    </marker>
    <style>
      .bg { fill: #f8fafc; }
      .panel { fill: #ffffff; stroke: #cbd5e1; stroke-width: 2; }
      .soft { fill: #eef6ff; stroke: #7aa7d9; }
      .green { fill: #eefaf2; stroke: #62a878; }
      .gold { fill: #fff7e6; stroke: #d99f2b; }
      .rose { fill: #fff1f2; stroke: #e07480; }
      .ink { fill: #0f172a; font-family: "Segoe UI", Arial, sans-serif; }
      .muted { fill: #475569; font-family: "Segoe UI", Arial, sans-serif; }
      .tiny { font-size: 15px; }
      .small { font-size: 18px; }
      .medium { font-size: 21px; font-weight: 700; }
      .large { font-size: 28px; font-weight: 800; }
      .line { stroke: #334155; stroke-width: 2.5; fill: none; marker-end: url(#arrow); }
      .line-soft { stroke: #64748b; stroke-width: 2; fill: none; marker-end: url(#arrow); stroke-dasharray: 7 7; }
      .label { font-size: 14px; fill: #334155; font-family: "Segoe UI", Arial, sans-serif; font-weight: 700; }
    </style>
  </defs>

  <rect class="bg" width="1180" height="720"/>

  <text x="40" y="48" class="ink large">Profile 1: Local kind lab (Ollama)</text>
  <text x="40" y="78" class="muted small">Single-node kind cluster, no GPU, no external IdP or secret manager; access via kubectl port-forward.</text>

  <!-- kind cluster boundary -->
  <rect x="30" y="98" width="1120" height="580" rx="16" fill="none" stroke="#94a3b8" stroke-width="2" stroke-dasharray="3 6"/>
  <text x="48" y="124" class="muted small">kind cluster: private-ai-platform-kit</text>

  <!-- Users -->
  <rect x="50" y="150" width="210" height="330" rx="14" class="panel soft"/>
  <text x="72" y="186" class="ink medium">Clients</text>
  <rect x="70" y="206" width="170" height="78" rx="10" fill="#ffffff" stroke="#7aa7d9" stroke-width="1.5"/>
  <text x="88" y="238" class="ink small">API clients</text>
  <text x="88" y="262" class="muted tiny">OpenAI-compatible</text>
  <rect x="70" y="300" width="170" height="86" rx="10" fill="#ffffff" stroke="#7aa7d9" stroke-width="1.5"/>
  <text x="88" y="332" class="ink small">Coding agents</text>
  <text x="88" y="356" class="muted tiny">ns ai-agents, PVC</text>
  <rect x="70" y="402" width="170" height="62" rx="10" fill="#ffffff" stroke="#7aa7d9" stroke-width="1.5"/>
  <text x="88" y="432" class="ink small">Platform team</text>
  <text x="88" y="452" class="muted tiny">port-forward :8080</text>

  <!-- Gateway -->
  <rect x="330" y="170" width="280" height="250" rx="14" class="panel green"/>
  <text x="352" y="206" class="ink medium">Inference Gateway</text>
  <text x="352" y="230" class="muted tiny">ns inference, :8080  POST /v1/chat/completions</text>
  <rect x="350" y="246" width="240" height="34" rx="17" fill="#e2e8f0"/>
  <text x="368" y="269" class="label">API key (inline SHA-256)</text>
  <rect x="350" y="290" width="240" height="34" rx="17" fill="#e2e8f0"/>
  <text x="368" y="313" class="label">Admission + guardrails</text>
  <rect x="350" y="334" width="240" height="34" rx="17" fill="#e2e8f0"/>
  <text x="368" y="357" class="label">Routing + audit chain</text>
  <rect x="350" y="378" width="240" height="34" rx="17" fill="#e2e8f0"/>
  <text x="368" y="401" class="label">Prometheus /metrics</text>

  <!-- Budget Redis -->
  <rect x="330" y="450" width="280" height="80" rx="14" class="panel"/>
  <text x="352" y="484" class="ink small">Budget Redis</text>
  <text x="352" y="508" class="muted tiny">ns budget :6379  per-sandbox window (250 req)</text>

  <!-- Ollama runtime -->
  <rect x="680" y="160" width="220" height="110" rx="14" class="panel"/>
  <text x="702" y="196" class="ink medium">Ollama</text>
  <text x="702" y="222" class="muted tiny">ns ollama :11434</text>
  <text x="702" y="246" class="muted tiny">model qwen2.5:0.5b</text>

  <!-- RAG -->
  <rect x="680" y="300" width="220" height="120" rx="14" class="panel soft"/>
  <text x="702" y="336" class="ink small">RAG Service</text>
  <text x="702" y="360" class="muted tiny">ns rag</text>
  <text x="702" y="384" class="muted tiny">lexical retrieval</text>
  <text x="702" y="406" class="muted tiny">+ embeddings</text>

  <!-- GitOps -->
  <rect x="960" y="160" width="180" height="150" rx="14" class="panel gold"/>
  <text x="982" y="196" class="ink medium">GitOps</text>
  <text x="982" y="226" class="muted tiny">Argo CD</text>
  <text x="982" y="250" class="muted tiny">Helm charts</text>
  <text x="982" y="274" class="muted tiny">Kyverno (ns kyverno)</text>

  <!-- Observability -->
  <rect x="960" y="340" width="180" height="210" rx="14" class="panel rose"/>
  <text x="982" y="376" class="ink medium">Observability</text>
  <text x="982" y="406" class="muted tiny">ns monitoring</text>
  <text x="982" y="430" class="muted tiny">kube-prometheus</text>
  <text x="982" y="454" class="muted tiny">Loki + Promtail</text>
  <text x="982" y="478" class="muted tiny">pushgateway</text>
  <text x="982" y="502" class="muted tiny">OpenCost (ns opencost)</text>
  <text x="982" y="526" class="muted tiny">restore-drill (Redis AOF)</text>

  <!-- flows -->
  <path d="M260 245 C295 245 305 295 330 295" class="line"/>
  <path d="M260 343 C295 343 305 300 330 300" class="line"/>
  <path d="M610 215 C645 200 650 195 680 200" class="line"/>
  <path d="M610 360 C645 360 650 360 680 360" class="line"/>
  <path d="M470 420 C470 432 470 438 470 450" class="line"/>
  <path d="M610 395 C780 470 870 470 960 460" class="line-soft"/>
  <path d="M900 240 C930 240 935 235 960 235" class="line-soft"/>

  <text x="624" y="200" class="muted tiny">route</text>
  <text x="624" y="350" class="muted tiny">context</text>
  <text x="486" y="445" class="muted tiny">budget</text>
  <text x="720" y="500" class="muted tiny">metrics + redacted audit logs</text>

  <text x="40" y="700" class="muted tiny">All components reconciled from this repo by Argo CD. Identical chart set carries into the customer profile.</text>
</svg>
