<svg xmlns="http://www.w3.org/2000/svg" width="1220" height="760" viewBox="0 0 1220 760" role="img" aria-labelledby="title desc">
  <title id="title">Customer cluster vLLM+GPU deployment profile</title>
  <desc id="desc">Customer-owned Kubernetes: external clients enter through operator-provided ingress to the inference gateway, which verifies JWTs against the customer IdP JWKS, enforces Redis budgets, routes coding traffic to a GPU-backed vLLM runtime and chat to Ollama, and calls the Qdrant-backed RAG service; secrets come from External Secrets, with Argo CD GitOps and the customer observability stack.</desc>
  <defs>
    <marker id="arrow" markerWidth="12" markerHeight="12" refX="10" refY="6" orient="auto" markerUnits="strokeWidth">
      <path d="M2,2 L10,6 L2,10 Z" fill="#334155"/>
    </marker>
    <style>
      .bg { fill: #f8fafc; }
      .panel { fill: #ffffff; stroke: #cbd5e1; stroke-width: 2; }
      .soft { fill: #eef6ff; stroke: #7aa7d9; }
      .green { fill: #eefaf2; stroke: #62a878; }
      .gold { fill: #fff7e6; stroke: #d99f2b; }
      .rose { fill: #fff1f2; stroke: #e07480; }
      .gpu { fill: #f3effc; stroke: #8b6fc6; }
      .ink { fill: #0f172a; font-family: "Segoe UI", Arial, sans-serif; }
      .muted { fill: #475569; font-family: "Segoe UI", Arial, sans-serif; }
      .tiny { font-size: 15px; }
      .small { font-size: 18px; }
      .medium { font-size: 21px; font-weight: 700; }
      .large { font-size: 28px; font-weight: 800; }
      .line { stroke: #334155; stroke-width: 2.5; fill: none; marker-end: url(#arrow); }
      .line-soft { stroke: #64748b; stroke-width: 2; fill: none; marker-end: url(#arrow); stroke-dasharray: 7 7; }
      .label { font-size: 14px; fill: #334155; font-family: "Segoe UI", Arial, sans-serif; font-weight: 700; }
    </style>
  </defs>

  <rect class="bg" width="1220" height="760"/>

  <text x="40" y="48" class="ink large">Profile 2: Customer cluster (vLLM + GPU)</text>
  <text x="40" y="78" class="muted small">Existing Kubernetes; operator owns ingress, secret backend, observability, and GPU node pools.</text>

  <!-- External clients -->
  <rect x="40" y="150" width="190" height="200" rx="14" class="panel soft"/>
  <text x="62" y="186" class="ink medium">Clients</text>
  <rect x="60" y="206" width="150" height="62" rx="10" fill="#ffffff" stroke="#7aa7d9" stroke-width="1.5"/>
  <text x="78" y="234" class="ink small">External</text>
  <text x="78" y="256" class="muted tiny">API clients</text>
  <rect x="60" y="282" width="150" height="56" rx="10" fill="#ffffff" stroke="#7aa7d9" stroke-width="1.5"/>
  <text x="78" y="308" class="ink small">Coding agents</text>
  <text x="78" y="328" class="muted tiny">ns ai-agents</text>

  <!-- Customer IdP -->
  <rect x="40" y="400" width="190" height="100" rx="14" class="panel"/>
  <text x="62" y="436" class="ink small">Customer IdP</text>
  <text x="62" y="460" class="muted tiny">OIDC issuer</text>
  <text x="62" y="482" class="muted tiny">JWKS endpoint</text>

  <!-- Cluster boundary -->
  <rect x="270" y="120" width="910" height="600" rx="16" fill="none" stroke="#94a3b8" stroke-width="2" stroke-dasharray="3 6"/>
  <text x="288" y="146" class="muted small">Customer-owned Kubernetes cluster (Argo CD project: private-ai-platform)</text>

  <!-- Ingress -->
  <rect x="290" y="200" width="150" height="90" rx="14" class="panel gold"/>
  <text x="312" y="236" class="ink small">Ingress</text>
  <text x="312" y="258" class="muted tiny">operator-</text>
  <text x="312" y="278" class="muted tiny">provided</text>

  <!-- Gateway -->
  <rect x="470" y="170" width="270" height="250" rx="14" class="panel green"/>
  <text x="492" y="206" class="ink medium">Inference Gateway</text>
  <text x="492" y="230" class="muted tiny">ns inference, :8080  multi-replica + KEDA</text>
  <rect x="490" y="246" width="230" height="34" rx="17" fill="#e2e8f0"/>
  <text x="508" y="269" class="label">API key + JWT / JWKS</text>
  <rect x="490" y="290" width="230" height="34" rx="17" fill="#e2e8f0"/>
  <text x="508" y="313" class="label">Admission + guardrails</text>
  <rect x="490" y="334" width="230" height="34" rx="17" fill="#e2e8f0"/>
  <text x="508" y="357" class="label">Routing / canary / failover</text>
  <rect x="490" y="378" width="230" height="34" rx="17" fill="#e2e8f0"/>
  <text x="508" y="401" class="label">Audit chain + /metrics</text>

  <!-- Budget Redis -->
  <rect x="470" y="450" width="270" height="74" rx="14" class="panel"/>
  <text x="492" y="482" class="ink small">Budget Redis</text>
  <text x="492" y="504" class="muted tiny">ns budget :6379  (10000 req window)</text>

  <!-- vLLM GPU -->
  <rect x="800" y="160" width="220" height="130" rx="14" class="panel gpu"/>
  <text x="822" y="196" class="ink medium">vLLM</text>
  <text x="822" y="222" class="muted tiny">ns vllm :8000  GPU nodes</text>
  <text x="822" y="246" class="muted tiny">Qwen3-Coder-Next</text>
  <text x="822" y="270" class="muted tiny">nvidia.com/gpu | amd.com/gpu</text>

  <!-- Ollama -->
  <rect x="800" y="306" width="220" height="84" rx="14" class="panel"/>
  <text x="822" y="340" class="ink small">Ollama</text>
  <text x="822" y="364" class="muted tiny">ns ollama :11434  qwen3.5:0.8b chat</text>

  <!-- RAG + Qdrant -->
  <rect x="800" y="410" width="220" height="78" rx="14" class="panel soft"/>
  <text x="822" y="442" class="ink small">RAG Service</text>
  <text x="822" y="466" class="muted tiny">ns rag  qdrant hybrid</text>
  <rect x="800" y="500" width="220" height="68" rx="14" class="panel"/>
  <text x="822" y="530" class="ink small">Qdrant</text>
  <text x="822" y="552" class="muted tiny">ns vector :6333</text>

  <!-- External Secrets -->
  <rect x="290" y="470" width="150" height="120" rx="14" class="panel"/>
  <text x="312" y="506" class="ink small">External</text>
  <text x="312" y="528" class="ink small">Secrets</text>
  <text x="312" y="552" class="muted tiny">gw + RAG keys</text>
  <text x="312" y="574" class="muted tiny">HF token</text>

  <!-- GitOps + Observability -->
  <rect x="470" y="560" width="270" height="78" rx="14" class="panel gold"/>
  <text x="492" y="594" class="ink small">GitOps + Policy</text>
  <text x="492" y="618" class="muted tiny">Argo CD, Helm, Kyverno (ns kyverno)</text>

  <rect x="800" y="590" width="220" height="100" rx="14" class="panel rose"/>
  <text x="822" y="624" class="ink small">Observability</text>
  <text x="822" y="648" class="muted tiny">ns monitoring; customer</text>
  <text x="822" y="670" class="muted tiny">Prometheus / Loki / backup</text>

  <!-- flows -->
  <path d="M230 250 C255 250 265 245 290 245" class="line"/>
  <path d="M230 305 C300 360 360 330 470 320" class="line"/>
  <path d="M440 245 C455 250 460 270 470 280" class="line"/>
  <path d="M230 450 C320 360 380 340 470 340" class="line-soft"/>
  <path d="M740 215 C770 200 775 210 800 220" class="line"/>
  <path d="M740 345 C770 345 775 345 800 348" class="line"/>
  <path d="M740 395 C770 420 775 440 800 445" class="line"/>
  <path d="M910 488 C910 494 910 496 910 500" class="line"/>
  <path d="M605 420 C605 435 605 440 605 450" class="line"/>
  <path d="M440 530 C455 480 460 420 470 400" class="line-soft"/>
  <path d="M740 470 C765 540 775 600 800 630" class="line-soft"/>

  <text x="244" y="240" class="muted tiny">HTTPS</text>
  <text x="240" y="445" class="muted tiny">JWKS</text>
  <text x="752" y="210" class="muted tiny">code</text>
  <text x="752" y="340" class="muted tiny">chat</text>
  <text x="752" y="432" class="muted tiny">context</text>
  <text x="620" y="445" class="muted tiny">budget</text>
  <text x="358" y="415" class="muted tiny">key digests</text>

  <text x="40" y="740" class="muted tiny">Generate with make customer-overlay. Secrets resolve at runtime via External Secrets; no secret material in Git.</text>
</svg>
